<?xml version="1.0" encoding="UTF-8"?>
<svg width="512pt" height="512pt" version="1.1" viewBox="0 0 512 512" xmlns="http://www.w3.org/2000/svg">
 <path d="m335.64 316.5c3.1016-4.6602 2.0586-10.859-2.5781-13.441-4.6602-2.5781-10.859-2.0586-13.441 2.5781l-1.5586 1.5586c-6.1992-3.6211-13.441-6.1992-21.199-6.1992-11.898 0-22.242 5.1797-30 12.918l-69.82-51.723c-1.0391-1.0391-2.5781-1.5586-4.1406-1.5586 1.0391-3.1016 1.0391-6.7188 1.0391-10.34 0-22.762-18.621-40.859-40.859-40.859-22.762 0-40.859 18.621-40.859 40.859 0 10.34 3.6211 19.141 9.8203 26.379l-61.02 74.48c-5.1797-2.5781-11.379-4.1406-17.059-4.1406-22.762 0-40.859 18.621-40.859 40.859 0 22.762 18.621 40.859 40.859 40.859 22.762 0 40.859-18.621 40.859-40.859 0-9.8203-3.6211-18.102-8.8008-25.34l0.51953-0.51953 61.543-74.98c5.1797 2.0586 10.34 3.1016 16.039 3.1016 12.422 0 23.781-5.6797 31.539-14.48l0.51953 0.51953 71.379 54.801c-1.0391 3.6211-1.5586 7.7617-1.5586 11.379 0 22.762 18.621 40.859 40.859 40.859 22.762 0 40.859-18.621 40.859-40.859 0-8.2812-2.0586-15-6.1992-21.199zm-292.72 94.66c-11.898 0-21.719-9.8203-21.719-21.719s9.8203-21.719 21.719-21.719 21.719 9.8203 21.719 21.719c0 11.879-9.3008 21.719-21.719 21.719zm110.68-138.62c-11.898 0-21.719-9.8203-21.719-21.719 0-11.898 9.8203-21.719 21.719-21.719 11.898 0 21.719 9.8203 21.719 21.719 0 11.898-9.8203 21.719-21.719 21.719zm143.78 92.059c-11.898 0-21.719-9.8203-21.719-21.719 0-11.898 9.8203-21.719 21.719-21.719 6.1992 0 11.898 2.5781 15.52 7.2383l0.51953 0.51953c3.6211 4.1406 5.6797 9.3008 5.6797 14.48 0 11.379-9.8398 21.199-21.719 21.199z"/>
 <path d="m362.54 260.66c-4.6602-3.1016-10.859-2.0586-13.441 2.5781l-7.7617 10.859c-3.1016 4.6602-2.0586 10.859 2.5781 13.441 1.5586 1.0391 3.6211 1.5586 5.6797 1.5586 3.1016 0 6.1992-1.5586 8.2812-4.1406l7.7617-10.859c2.5781-4.6602 1.5586-10.34-3.1016-13.441z"/>
 <path d="m432.88 99.301c-42.398 0-76.539 34.141-76.539 76.539 0 19.141 7.2383 36.719 18.621 50.16l-4.1406 5.6797c-3.1016 4.6602-2.0586 10.859 2.5781 13.441 1.5586 1.0391 3.6211 1.5586 5.6797 1.5586 3.1016 0 6.1992-1.5586 8.2812-4.1406l2.5781-3.6211c12.422 8.2812 26.898 13.441 42.922 13.441 42.398 0 76.539-34.141 76.539-76.539 0.019531-42.379-34.121-76.52-76.52-76.52zm0 132.4c-31.039 0-55.859-25.34-55.859-55.859 0-30.52 25.34-55.859 55.859-55.859 30.5 0 55.84 24.82 55.84 55.859 0 31.02-24.82 55.859-55.84 55.859z"/>
 <path d="m424.6 188.26-20.18-17.078-10.34 11.898 32.059 27.398 44.48-52.742-11.879-10.34z"/>
</svg>
