<?xml version="1.0" encoding="UTF-8"?>
<svg width="512pt" height="512pt" version="1.1" viewBox="0 0 512 512" xmlns="http://www.w3.org/2000/svg">
 <path d="m193.54 25.602c22.199 0 43.281 9.7578 57.66 26.66 14.379 16.922 20.602 39.281 17.039 61.199-3.5586 21.898-16.559 41.141-35.559 52.641 9.8008 2.3203 19.359 5.5391 28.578 9.5781 9.8203-8.418 23.199-11.379 35.66-7.8789 9.3203 2.4805 19.16-1.6016 24-9.9219 6.5391-12.02 19.121-19.52 32.801-19.52 13.699 0 26.281 7.5 32.801 19.52 4.8594 8.3203 14.699 12.398 24.02 9.9219 13.141-4 27.422-0.44141 37.121 9.2812 9.7188 9.6992 13.281 23.98 9.2812 37.121-2.4805 9.3203 1.5781 19.16 9.9219 24 12.02 6.5391 19.52 19.121 19.52 32.801 0 13.68-7.5 26.281-19.52 32.801-8.3398 4.8594-12.398 14.68-9.9219 24.02 6.6602 26.719-12.281 49.699-38.922 47.621v103.2c0.019531 3.0195-1.7383 5.7812-4.4805 7.0391-2.7383 1.2812-5.9805 0.82031-8.2812-1.1406l-51.516-35.379-52.18 35.84c-2.3594 1.6016-5.4219 1.7812-7.9414 0.44141-2.5391-1.3203-4.1211-3.9414-4.1211-6.8008h-0.039062v-103.2c-26.621 2.0391-45.621-20.898-38.922-47.621 0.51953-2.0391 0.73828-4.1406 0.67969-6.2422h-217.88c-2.3008 0-4.5-1.0195-5.9805-2.8008-1.4609-1.7812-2.0586-4.1211-1.6406-6.3789 3.7188-34.699 18.059-67.379 41.102-93.578 23.039-26.199 53.621-44.621 87.543-52.742-19-11.5-31.98-30.738-35.539-52.641-3.5586-21.918 2.6797-44.281 17.059-61.18 14.379-16.922 35.461-26.66 57.66-26.66zm169.62 195.98c-1.6797-3.6992-5.3594-6.0781-9.418-6.0781s-7.7617 2.3789-9.4414 6.0781l-10.422 23.078-25.18 2.7812h0.019531c-4.0391 0.46094-7.4414 3.2188-8.6992 7.0781-1.2617 3.8594-0.14063 8.1016 2.8594 10.84l18.738 17.059-5.1211 24.82c-0.80078 3.9805 0.78125 8.0586 4.0586 10.441 3.2812 2.3789 7.6406 2.6211 11.16 0.62109l22.02-12.559 22.02 12.559c3.5195 2 7.8789 1.7617 11.16-0.62109 3.2812-2.3789 4.8594-6.4609 4.0586-10.441l-5.1211-24.82 18.738-17.059c3-2.7383 4.1211-6.9805 2.8594-10.84-1.2383-3.8594-4.6406-6.6211-8.6797-7.0781l-25.18-2.7812-10.422-23.078zm-9.418 16.762-9.3789 20.738-22.621 2.5 16.84 15.32-4.6016 22.262 19.738-11.262 19.738 11.262-4.6016-22.262 16.84-15.32-22.602-2.5zm0-50.121c-21.961 0-43.02 8.7188-58.543 24.262-15.52 15.52-24.238 36.578-24.238 58.523 0 21.961 8.7188 43.02 24.238 58.543s36.578 24.238 58.543 24.238c21.941 0 43-8.7188 58.523-24.238 15.523-15.52 24.262-36.578 24.262-58.543 0-21.941-8.7383-43-24.262-58.523-15.52-15.539-36.578-24.262-58.523-24.262zm0 15.48v0.019531c-27.219 0-51.758 16.379-62.184 41.539-10.422 25.141-4.6602 54.078 14.582 73.32 19.238 19.262 48.18 25.02 73.34 14.602 25.141-10.422 41.539-34.961 41.539-62.184 0-37.16-30.121-67.281-67.281-67.281zm-101.64-15.16c-43.34-17.84-92.477-14.898-133.4 8-40.922 22.898-69.121 63.258-76.578 109.54h201.64c-0.98047-0.83984-2.0391-1.6016-3.1602-2.2812-12.02-6.5195-19.5-19.121-19.5-32.801s7.4805-26.262 19.5-32.801c8.3398-4.8594 12.398-14.68 9.9219-24-2.2617-8.5-1.6992-17.5 1.5781-25.66zm12.762 122.36 0.019531 0.019531c0.16016 0.42188 0.30078 0.87891 0.39844 1.3203 1.7812 6.3203 1.8594 12.98 0.23828 19.34-4.6016 18.379 9.2617 32.262 27.641 27.641h0.019532c15.922-4.1016 32.641 2.8398 41 17 3.7617 7.3594 11.301 11.98 19.559 11.98 8.2383 0 15.801-4.6211 19.539-11.98 8.3594-14.16 25.078-21.102 41.02-17 18.379 4.6016 32.262-9.2812 27.641-27.641-4.1016-15.941 2.8398-32.66 17-41.02 7.3594-3.7383 11.98-11.301 11.98-19.559 0-8.2383-4.6211-15.801-11.98-19.539-14.18-8.3594-21.121-25.078-17.02-41.02 4.6016-18.379-9.2617-32.262-27.641-27.641v-0.019531c-15.941 4.1016-32.66-2.8398-41-17-3.7617-7.3398-11.32-11.98-19.559-11.98-8.2383 0-15.801 4.6406-19.559 11.98-8.3398 14.16-25.059 21.102-40.98 17-18.379-4.6016-32.262 9.2617-27.641 27.641l-0.019531 0.019531c4.1016 15.922-2.8398 32.641-17 41-7.3398 3.7383-11.98 11.301-11.98 19.539 0 8.2617 4.6406 15.801 11.98 19.559 7.7383 4.5781 13.539 11.82 16.34 20.359zm137.66 62.762c-6.6797 0.78125-12.602 4.6602-16 10.48-6.5195 12.02-19.102 19.5-32.801 19.5-13.68 0-26.262-7.4805-32.801-19.5-3.3789-5.8203-9.3008-9.6992-15.98-10.48v90.32l44.281-30.422h0.019532c2.6211-1.8984 6.1797-1.9414 8.8398-0.10156l44.422 30.52zm-208.98-332.58c-24.359 0-46.32 14.68-55.641 37.18-9.3203 22.5-4.1602 48.398 13.059 65.617s43.121 22.359 65.617 13.039c22.5-9.3203 37.16-31.281 37.16-55.617 0-33.262-26.961-60.199-60.199-60.223z" fill-rule="evenodd"/>
</svg>
