<?xml version="1.0" encoding="UTF-8"?>
<svg width="512pt" height="512pt" version="1.1" viewBox="0 0 512 512" xmlns="http://www.w3.org/2000/svg">
 <path d="m303.76 60.297h72.184c14.219 0 25.84 11.578 25.84 25.801v387.3c0 14.219-11.621 25.801-25.84 25.801h-337.36c-14.219 0-25.781-11.578-25.781-25.801v-387.3c0-14.219 11.559-25.801 25.781-25.801h72.184v-21.719c0-14.219 11.559-25.801 25.781-25.801h141.42c14.219 0 25.781 11.578 25.781 25.801v21.719zm-224.9 355.78 10.602 11.379c2.8203 3.0781 7.6602 3.1602 10.762 0l36.379-36.422c2.8789-2.8594 2.9219-7.5195 0.058594-10.398-2.8789-2.8789-7.5195-2.8984-10.379-0.039062l-31.262 31.238-5.3789-5.8008c-2.7617-2.9805-7.3984-3.1406-10.379-0.37891-2.9805 2.7617-3.1406 7.418-0.37891 10.398zm42.621 2.7617v11.879c0 5.2812-4.3203 9.6016-9.5781 9.6016h-34.141c-5.2812 0-9.5781-4.3203-9.5781-9.6016v-34.16c0-5.2812 4.3203-9.6016 9.5781-9.6016h29.199c4.1016 0 7.3594-3.3008 7.3594-7.3789s-3.2617-7.3594-7.3594-7.3594h-29.199c-13.422 0-24.34 10.922-24.34 24.34v34.16c0 13.422 10.922 24.34 24.34 24.34h34.141c13.422 0 24.34-10.922 24.34-24.34v-11.879c0-4.0781-3.3008-7.3594-7.3594-7.3594-4.1016 0-7.3984 3.3008-7.3984 7.3594zm332.98-4.9414-0.058593-145.62h-15.121l-0.21875 145.62zm14.641-145.62v145.62h15.34v-145.62zm14.98 160.3h-44.641c0.89844 8.418 3.4609 15.922 7.8203 23.48l14.48 25.059 14.48-25.121c4.3203-7.4805 6.9219-15.02 7.8203-23.418zm-59.402-221.54c0-25.141 24.398-42.578 48.16-35.441 15.441 4.6602 26.359 19.16 26.359 35.5v214.24c0 13.879-3.2617 25.898-10.219 37.961l-20.879 36.16c-2.8203 4.9414-9.8984 4.8398-12.719 0.019531l-20.82-36.059c-6.9805-12.141-10.18-24.16-10.18-38.199l0.32031-214.2zm14.602 46.559h45.18v-12.621h-45.18zm0.058594-27.359h45.121v-19.141c0-20.082-24.441-29.84-38.559-15.801-4 4-6.5586 9.5391-6.5586 15.719zm-360.48-40.219 10.602 11.398c2.8203 3.0781 7.6602 3.1602 10.762 0l36.379-36.422c2.8789-2.8594 2.9219-7.5195 0.058594-10.398-2.8789-2.8789-7.5195-2.8789-10.379-0.019531l-31.262 31.238-5.3789-5.8203c-2.7617-2.9609-7.3984-3.1406-10.379-0.37891-2.9805 2.7617-3.1406 7.418-0.37891 10.379zm42.621 2.7812v11.879c0 5.2812-4.3203 9.6016-9.5781 9.6016h-34.141c-5.2812 0-9.5781-4.3203-9.5781-9.6016v-34.16c0-5.2812 4.3203-9.6016 9.5781-9.6016h29.199c4.1016 0 7.3594-3.3008 7.3594-7.3789s-3.2617-7.3594-7.3594-7.3594h-29.199c-13.422 0-24.34 10.922-24.34 24.34v34.16c0 13.422 10.922 24.34 24.34 24.34h34.141c13.422 0 24.34-10.922 24.34-24.34v-11.879c0-4.0781-3.3008-7.3789-7.3594-7.3789-4.1016 0-7.3984 3.3008-7.3984 7.3789zm86.723 1.6797h-39.359c-4.1016 0-7.3984 3.3008-7.3984 7.3789s3.3008 7.3594 7.3984 7.3594h39.359c4.0391 0 7.3594-3.3008 7.3594-7.3594 0-4.0781-3.3008-7.3789-7.3594-7.3789zm136.96 0h-93.16c-4.0391 0-7.3594 3.3008-7.3594 7.3789s3.3008 7.3594 7.3594 7.3594h93.16c4.1016 0 7.3984-3.3008 7.3984-7.3594 0-4.0781-3.3008-7.3789-7.3984-7.3789zm0-28.5h-176.32c-4.1016 0-7.3984 3.3008-7.3984 7.3594 0 4.0781 3.3008 7.3594 7.3984 7.3594h176.32c4.1016 0 7.3984-3.3008 7.3984-7.3594 0-4.0781-3.3008-7.3594-7.3984-7.3594zm-266.3 139.08 10.602 11.398c2.8203 3.0781 7.6602 3.1602 10.762 0.019531l36.379-36.422c2.8789-2.8594 2.9219-7.5195 0.058594-10.379-2.8789-2.8789-7.5195-2.8984-10.379-0.039063l-31.262 31.238-5.3789-5.8203c-2.7617-2.9609-7.3984-3.1406-10.379-0.37891s-3.1406 7.418-0.37891 10.398zm42.621 2.7617v11.879c0 5.2812-4.3203 9.6016-9.5781 9.6016h-34.141c-5.2812 0-9.5781-4.3203-9.5781-9.6016v-34.16c0-5.2812 4.3203-9.6016 9.5781-9.6016h29.199c4.1016 0 7.3594-3.3008 7.3594-7.3594 0-4.0781-3.2617-7.3789-7.3594-7.3789h-29.199c-13.422 0-24.34 10.922-24.34 24.34v34.16c0 13.422 10.922 24.34 24.34 24.34h34.141c13.422 0 24.34-10.922 24.34-24.34v-11.879c0-4.0781-3.3008-7.3594-7.3594-7.3594-4.1016 0-7.3984 3.3008-7.3984 7.3594zm86.723 1.6797h-39.359c-4.1016 0-7.3984 3.3008-7.3984 7.3594 0 4.0781 3.3008 7.3789 7.3984 7.3789h39.359c4.0391 0 7.3594-3.3008 7.3594-7.3789s-3.3008-7.3594-7.3594-7.3594zm136.96 0h-93.16c-4.0391 0-7.3594 3.3008-7.3594 7.3594 0 4.0781 3.3008 7.3789 7.3594 7.3789h93.16c4.1016 0 7.3984-3.3008 7.3984-7.3789s-3.3008-7.3594-7.3984-7.3594zm0-28.5h-176.32c-4.1016 0-7.3984 3.3008-7.3984 7.3789s3.3008 7.3594 7.3984 7.3594h176.32c4.1016 0 7.3984-3.3008 7.3984-7.3594 0-4.0781-3.3008-7.3789-7.3984-7.3789zm-136.96 143.52h-39.359c-4.1016 0-7.3984 3.3008-7.3984 7.3789s3.3008 7.3594 7.3984 7.3594h39.359c4.0391 0 7.3594-3.3008 7.3594-7.3594 0-4.0781-3.3008-7.3789-7.3594-7.3789zm136.96 0h-93.16c-4.0391 0-7.3594 3.3008-7.3594 7.3789s3.3008 7.3594 7.3594 7.3594h93.16c4.1016 0 7.3984-3.3008 7.3984-7.3594 0-4.0781-3.3008-7.3789-7.3984-7.3789zm0-28.5h-176.32c-4.1016 0-7.3984 3.3008-7.3984 7.3789s3.3008 7.3594 7.3984 7.3594h176.32c4.1016 0 7.3984-3.3008 7.3984-7.3594 0-4.0781-3.3008-7.3789-7.3984-7.3789zm-234.4-316.98h-72.184c-6.0781 0-11.082 4.9805-11.082 11.059v387.3c0 6.0781 5 11.059 11.082 11.059h337.36c6.0781 0 11.082-4.9805 11.082-11.059v-387.3c0-6.0781-5-11.059-11.082-11.059h-72.184v21.699c0 14.219-11.559 25.801-25.781 25.801h-141.42c-14.219 0-25.781-11.578-25.781-25.801v-21.699zm167.22-47.5h-141.42c-6.0781 0-11.02 4.9805-11.02 11.059v58.156c0 6.0781 4.9609 11.059 11.02 11.059h141.42c6.0781 0 11.082-4.9805 11.082-11.059v-58.156c0-6.0781-5-11.059-11.082-11.059z" fill-rule="evenodd"/>
</svg>
